IKResults
version=1
nRows=10
nColumns=40
inDegrees=yes

Units are S.I. units (second, meters, Newtons, ...)
Angles are in degrees.

endheader
time	pelvis_tilt	pelvis_list	pelvis_rotation	pelvis_tx	pelvis_ty	pelvis_tz	hip_flexion_r	hip_adduction_r	hip_rotation_r	knee_angle_r	knee_angle_r_beta	ankle_angle_r	subtalar_angle_r	mtp_angle_r	hip_flexion_l	hip_adduction_l	hip_rotation_l	knee_angle_l	knee_angle_l_beta	ankle_angle_l	subtalar_angle_l	mtp_angle_l	lumbar_extension	lumbar_bending	lumbar_rotation	arm_flex_r	arm_add_r	arm_rot_r	elbow_flex_r	pro_sup_r	wrist_flex_r	wrist_dev_r	arm_flex_l	arm_add_l	arm_rot_l	elbow_flex_l	pro_sup_l	wrist_flex_l	wrist_dev_l
      0.00000000	     15.80373730	     -3.37725660	     -1.36542150	     -1.21947595	      0.94876103	      1.00800078	      0.63388986	     -1.54766618	    -16.22311261	    -25.48045606	     -0.44471785	      4.40255853	      3.27688485	     -6.11406674	    -21.47771694	      0.01248574	     21.59787653	     -7.63964463	     -0.13333695	      8.05808293	     -9.70917506	     -5.56973955	    -23.50658820	      0.96567934	     -5.23065653	     -2.73315404	     -9.82244170	      2.70391692	     25.41571184	     89.95437384	      0.00000000	      0.00000000	      9.83382875	     12.50979506	     13.41052362	     23.53686889	     89.95437384	      0.00000000	      0.00000000
      0.01000000	     15.92077271	     -3.52662702	     -1.12891226	     -1.21517716	      0.94871014	      1.00759439	      0.84954024	     -1.37507981	    -17.05333119	    -24.66124215	     -0.43041987	      4.07859687	      3.25801813	     -6.03735043	    -21.84490788	      0.21130831	     21.22260638	     -7.71616265	     -0.13467244	      8.20614878	     -9.70886351	     -5.62953097	    -23.73495332	      1.25334640	     -5.24077325	     -2.77548762	     -9.83851805	      2.59645650	     25.34308578	     89.95437384	      0.00000000	      0.00000000	     10.06345813	     12.30664567	     13.46052316	     24.05699516	     89.95437384	      0.00000000	      0.00000000
      0.02000000	     15.77766144	     -3.47059169	     -1.10343851	     -1.21071594	      0.94809725	      1.00732973	      1.50274113	     -1.46342770	    -17.68466807	    -24.19501226	     -0.42228263	      4.15314534	      2.98658957	     -5.93738447	    -21.91799620	      0.14025190	     21.23366733	     -7.83113279	     -0.13667905	      8.39066851	     -9.55161725	     -5.60245037	    -23.61553447	      1.27366669	     -5.09115033	     -2.93068741	     -9.88171684	      2.60590560	     25.26764812	     89.95437384	      0.00000000	      0.00000000	     10.28040888	     12.07391968	     13.38935234	     24.58387861	     89.95437384	      0.00000000	      0.00000000
      0.03000000	     15.95154375	     -3.72314772	     -0.58143437	     -1.20606289	      0.94803643	      1.00680641	      1.47145344	     -1.14979686	    -18.96567493	    -23.17767548	     -0.40452675	      3.72600930	      2.68251988	     -5.72128336	    -22.31372863	      0.57269546	     20.71769047	     -8.00209236	     -0.13966286	      8.78319911	     -9.38137080	     -5.67021305	    -23.86186400	      1.76060359	     -5.32629931	     -3.01494212	     -9.86036228	      2.46285748	     25.16024395	     89.95437384	      0.00000000	      0.00000000	     10.20412767	     11.96101627	     13.04769898	     25.66074730	     89.95437384	      0.00000000	      0.00000000
      0.04000000	     15.77239792	     -3.66244912	     -0.69093237	     -1.20164442	      0.94737377	      1.00678198	      2.13958322	     -1.23804722	    -19.57170458	    -22.70587761	     -0.39629232	      3.79235177	      2.46248733	     -5.61479632	    -22.35562575	      0.44861816	     20.73786450	     -8.13701980	     -0.14201779	      8.92191141	     -9.22562189	     -5.63398783	    -23.72873534	      1.74197613	     -5.05179523	     -3.14937411	     -9.91346556	      2.48066620	     25.05022797	     89.95437384	      0.00000000	      0.00000000	     10.42817927	     11.71405884	     12.92425928	     26.23475935	     89.95437384	      0.00000000	      0.00000000
      0.05000000	     15.95741442	     -3.99309599	     -0.18749485	     -1.19681219	      0.94727646	      1.00649535	      1.99197665	     -0.80606468	    -20.88846179	    -21.56839957	     -0.37643959	      3.39459564	      2.40603450	     -5.40385579	    -22.78867304	      0.98378929	     20.25320425	     -8.30160501	     -0.14489034	      9.40375449	     -9.04129535	     -5.71222442	    -23.96964352	      2.29280471	     -5.25422232	     -3.21282317	     -9.85524218	      2.23742203	     24.87498448	     89.95437384	      0.00000000	      0.00000000	     10.17486207	     11.69343356	     12.23301930	     27.64098587	     89.95437384	      0.00000000	      0.00000000
      0.06000000	     16.04772437	     -4.20669786	      0.05353127	     -1.19200311	      0.94703060	      1.00644411	      2.02903098	     -0.50512655	    -21.85179287	    -20.57478218	     -0.35909769	      3.13846053	      2.59906238	     -5.26144952	    -23.15017874	      1.29163523	     20.00592669	     -8.42110069	     -0.14697593	      9.70292675	     -8.77010540	     -5.77049334	    -24.09549215	      2.64894295	     -5.19509907	     -3.33279158	     -9.86558666	      2.16454930	     24.71069328	     89.95437384	      0.00000000	      0.00000000	     10.19005459	     11.59286813	     11.61577021	     28.59921901	     89.95437384	      0.00000000	      0.00000000
      0.07000000	     15.82125792	     -4.16867810	     -0.05076471	     -1.18737586	      0.94627614	      1.00654633	      2.65983280	     -0.52289829	    -22.36102890	    -20.05039528	     -0.34994541	      3.10307225	      2.60365878	     -5.17754929	    -23.16292259	      1.20581798	     19.98308324	     -8.55226785	     -0.14926523	      9.88419818	     -8.63486333	     -5.74176873	    -23.89625971	      2.66237104	     -4.90560500	     -3.48738234	     -9.92044642	      2.17783540	     24.54747500	     89.95437384	      0.00000000	      0.00000000	     10.36242486	     11.34115339	     11.44159667	     29.27957046	     89.95437384	      0.00000000	      0.00000000
      0.08000000	     15.77935756	     -4.56441950	      0.22854187	     -1.18251517	      0.94582704	      1.00674231	      2.71646551	      0.07742585	    -23.07844934	    -18.83271520	     -0.32869289	      2.62756354	      3.45471555	     -5.15724853	    -23.33716315	      1.75300824	     19.65717965	     -8.77749950	     -0.15319627	     10.48128873	     -8.39210913	     -5.79423746	    -23.89760818	      3.21223111	     -4.93834350	     -3.45922069	     -9.88023615	      2.05205870	     24.15658763	     89.95437384	      0.00000000	      0.00000000	     10.09466372	     11.34144855	     10.75893111	     30.70406565	     89.95437384	      0.00000000	      0.00000000
      0.09000000	     16.03609213	     -4.82953692	      0.68296377	     -1.17734631	      0.94573085	      1.00656968	      2.37532863	      0.48210985	    -24.21185844	    -17.59429490	     -0.30707838	      2.20690131	      4.55024726	     -5.29490902	    -23.80726739	      2.22094954	     19.20668630	     -9.04131015	     -0.15780063	     10.76041971	     -8.03657776	     -5.92966877	    -24.16112055	      3.69509517	     -5.01241859	     -3.61212035	     -9.87267132	      1.90412403	     23.98123788	     89.95437384	      0.00000000	      0.00000000	     10.11601603	     11.30433928	     10.02047617	     31.73362638	     89.95437384	      0.00000000	      0.00000000
